<?xml version="1.0" encoding="UTF-8"?>
<!DOCTYPE svg PUBLIC "-//W3C//DTD SVG 1.1//EN" "http://www.w3.org/Graphics/SVG/1.1/DTD/svg11.dtd">
<!-- Creator: CorelDRAW -->
<svg xmlns="http://www.w3.org/2000/svg" xml:space="preserve" width="155.397mm" height="51.3708mm" version="1.1" style="shape-rendering:geometricPrecision; text-rendering:geometricPrecision; image-rendering:optimizeQuality; fill-rule:evenodd; clip-rule:evenodd"
viewBox="0 0 15539.74 5137.08"
 xmlns:xlink="http://www.w3.org/1999/xlink"
 xmlns:xodm="http://www.corel.com/coreldraw/odm/2003">
 <defs>
  <style type="text/css">
   <![CDATA[
    .fil2 {fill:#546186}
    .fil1 {fill:#823DBF}
    .fil0 {fill:#FBA32B}
    .fil3 {fill:#2B2A29;fill-rule:nonzero}
    .fil4 {fill:#823DBF;fill-rule:nonzero}
   ]]>
  </style>
 </defs>
 <g id="Layer_x0020_1">
  <metadata id="CorelCorpID_0Corel-Layer"/>
  <g id="_1635759653872">
   <path class="fil0" d="M3496.38 3070.52c-321.06,65.54 -431.23,271.47 -427.6,623.8 5.06,492.09 -114.35,1118.66 216.06,1333.93 159.37,103.83 236.72,95.58 433.29,93.95 757.61,-6.3 1422.7,183.59 1423.69,-632.87 0.91,-736.35 175.58,-1434.4 -628.99,-1434.68 -266.8,-0.09 -791.6,-30.03 -1016.45,15.87z"/>
   <path class="fil1" d="M350.09 28.43c-294.5,95.46 -343.67,312.76 -341.4,675.75 5.57,892.89 -154.82,1323.23 693.01,1319.1 875.82,-4.26 1334.42,162.26 1337.56,-683.99 0.79,-212.05 30.86,-831.27 -26.42,-991.93 -101.75,-285.38 -317.23,-342.03 -675.95,-341.15 -202.45,0.5 -842.97,-24.41 -986.8,22.22z"/>
   <path class="fil1" d="M2416.59 1260.76c360.18,-9.07 715.34,-8.92 1015.37,154.01 167.96,91.21 505.15,411.63 440.29,707.35l-319.06 -3.02c42.44,97.55 50.38,86.82 128.95,156.65l433.26 403.3c97.62,-95.21 512.18,-469.6 547.07,-559.75l-335.49 -2.57c-96.22,-382.34 -101.48,-700.07 -591.84,-1006.34 -406.43,-253.85 -778,-263.64 -1304.43,-262.21l-14.12 412.58z"/>
   <path class="fil2" d="M2137.14 3875.51l0.86 312.61c111.56,-56.43 190.15,-129.37 299.43,-212.65 92.83,-70.75 222.14,-150.84 303.98,-228.15 -51.24,-106.72 -479.5,-499.09 -581.19,-554.11l-2.77 267.75c-790.5,-68 -901.49,-497.3 -956.03,-1084.34l-413.67 1.47c-99.72,807.69 509.31,1463.12 1349.39,1497.42z"/>
  </g>
  <path class="fil3" d="M7279.75 2725.85c0,175.57 -51.32,245.8 -153.96,245.8 -110.75,0 -172.87,-59.42 -172.87,-240.4l0 -1407.28 -337.64 0 -2.7 162.07c-83.74,-135.06 -207.99,-197.18 -370.06,-197.18 -334.93,0 -575.33,264.71 -575.33,713.09 0,402.47 202.58,686.08 545.62,686.08 162.07,0 289.02,-64.82 388.96,-199.88l0 240.4c0,326.84 213.39,553.73 502.41,553.73 286.32,0 505.11,-213.39 505.11,-556.43l-329.54 0zm-953.49 -337.64c-205.29,0 -302.53,-137.76 -302.53,-410.57 0,-237.7 124.26,-402.46 299.83,-402.46 167.47,0 297.12,156.66 297.12,380.85 0,289.02 -99.94,432.18 -294.42,432.18z"/>
  <path id="_1" class="fil3" d="M8276.46 2652.92l0 -1328.95 -348.44 0 0 767.12c0,175.57 -94.54,302.52 -272.81,302.52 -148.57,0 -224.2,-81.03 -224.2,-248.5l0 -821.14 -351.14 0 0 875.16c0,291.72 186.38,488.9 451.08,488.9 183.68,0 321.44,-70.22 413.27,-221.49l0 186.38 332.24 0z"/>
  <path id="_2" class="fil3" d="M9235.35 2147.81c-2.7,156.67 -137.76,289.02 -318.73,289.02 -110.75,0 -170.17,-48.62 -170.17,-148.56 0,-113.45 64.83,-170.17 264.71,-207.99 129.65,-24.31 191.78,-43.21 226.89,-78.33l-2.7 145.86zm353.85 505.11l0 -840.05c0,-334.93 -145.86,-524.01 -567.24,-524.01 -426.77,0 -578.04,191.78 -583.44,467.29l326.84 0c16.2,-118.85 81.03,-197.18 240.4,-197.18 137.75,0 224.19,51.32 224.19,137.76 0,91.83 -48.62,126.95 -224.19,151.26 -353.85,48.62 -610.46,91.84 -610.46,475.39 0,216.09 140.46,364.65 442.99,364.65 178.27,0 318.73,-62.12 402.46,-153.96 2.7,40.52 10.81,86.44 21.61,118.85l326.84 0z"/>
  <path id="_3" class="fil3" d="M10947.85 2652.92l0 -921.08c0,-289.02 -186.37,-442.98 -440.28,-442.98 -213.38,0 -348.44,81.03 -429.47,229.59l0 -194.48 -334.94 0 0 1328.95 351.14 0 0 -761.71c0,-202.59 89.14,-305.23 272.82,-305.23 167.46,0 226.89,56.72 226.89,262.01l0 804.93 353.84 0z"/>
  <path id="_4" class="fil3" d="M11855.43 2123.5c0,164.77 -64.83,259.31 -205.29,259.31 -143.15,0 -202.58,-97.24 -202.58,-264.71l0 -545.62 734.7 0 0 -248.51 -734.7 0 0 -359.24 -345.74 0 0 1188.48c0,286.32 153.96,534.82 542.92,534.82 375.46,0 537.52,-251.2 537.52,-532.11l0 -378.16 -326.83 0 0 345.74z"/>
  <path id="_5" class="fil3" d="M13130.35 2147.81c-2.7,156.67 -137.76,289.02 -318.73,289.02 -110.75,0 -170.17,-48.62 -170.17,-148.56 0,-113.45 64.83,-170.17 264.71,-207.99 129.65,-24.31 191.78,-43.21 226.89,-78.33l-2.7 145.86zm353.85 505.11l0 -840.05c0,-334.93 -145.86,-524.01 -567.24,-524.01 -426.77,0 -578.04,191.78 -583.44,467.29l326.84 0c16.2,-118.85 81.03,-197.18 240.4,-197.18 137.75,0 224.19,51.32 224.19,137.76 0,91.83 -48.62,126.95 -224.19,151.26 -353.85,48.62 -610.46,91.84 -610.46,475.39 0,216.09 140.46,364.65 442.99,364.65 178.27,0 318.73,-62.12 402.46,-153.96 2.7,40.52 10.81,86.44 21.61,118.85l326.84 0z"/>
  <path id="_6" class="fil3" d="M15539.74 2652.92l0 -921.08c0,-248.5 -186.38,-442.98 -453.79,-442.98 -167.47,0 -286.31,64.83 -359.24,210.69 -102.65,-153.97 -189.08,-210.69 -370.06,-210.69 -175.57,0 -299.82,54.02 -388.96,229.59l0 -194.48 -329.53 0 0 1328.95 351.14 0 0 -807.63c0,-172.87 72.93,-259.31 213.39,-259.31 153.96,0 210.69,54.02 210.69,267.41l0 799.53 351.14 0 0 -794.13c0,-162.06 94.54,-283.61 224.19,-283.61 124.25,0 207.99,113.44 207.99,272.81l0 804.93 343.04 0z"/>
  <path class="fil4" d="M8388.9 3715.53c-2.68,155.51 -136.74,286.88 -316.37,286.88 -109.93,0 -168.91,-48.26 -168.91,-147.46 0,-112.61 64.35,-168.91 262.75,-206.45 128.69,-24.13 190.36,-42.89 225.21,-77.75l-2.68 144.78zm351.23 501.37l0 -833.83c0,-332.45 -144.78,-520.13 -563.04,-520.13 -423.61,0 -573.76,190.36 -579.12,463.83l324.42 0c16.08,-117.97 80.43,-195.72 238.62,-195.72 136.73,0 222.53,50.94 222.53,136.74 0,91.15 -48.26,126.01 -222.53,150.14 -351.23,48.26 -605.94,91.16 -605.94,471.87 0,214.49 139.42,361.95 439.71,361.95 176.95,0 316.37,-61.66 399.48,-152.82 2.68,40.22 10.73,85.8 21.45,117.97l324.42 0z"/>
  <path id="_1_0" class="fil4" d="M10021.7 3297.28c-18.77,-284.2 -190.36,-434.34 -571.08,-434.34 -402.17,0 -554.99,168.91 -554.99,391.44 0,117.97 42.9,219.85 166.23,297.6 93.84,58.99 217.17,96.52 439.7,150.15 112.61,26.81 211.81,56.3 211.81,150.14 0,99.2 -109.93,136.74 -233.26,136.74 -168.91,0 -273.47,-72.39 -273.47,-195.73l-359.27 0c5.36,268.12 230.58,458.47 635.42,458.47 375.36,0 576.44,-163.54 576.44,-437.02 0,-171.59 -77.75,-262.75 -217.17,-319.05 -101.88,-40.22 -243.98,-69.71 -394.12,-112.61 -142.1,-40.21 -214.49,-72.39 -214.49,-150.14 0,-77.75 75.07,-109.92 206.45,-109.92 158.18,0 227.89,45.58 246.66,174.27l335.14 0z"/>
  <path id="_2_1" class="fil4" d="M10997.62 4257.12c0,174.27 -115.29,284.19 -241.3,284.19 -182.32,0 -273.48,-96.52 -273.48,-252.02l-324.41 0c0,340.5 195.72,552.31 581.8,552.31 337.82,0 605.93,-217.17 605.93,-589.85l0 -1353.96 -348.54 0 0 804.34c0,142.1 -109.93,246.66 -268.11,246.66 -147.47,0 -222.54,-83.12 -222.54,-246.66l0 -804.34 -348.54 0 0 855.28c0,289.56 206.44,477.24 482.6,477.24 163.55,0 308.33,-69.71 356.59,-187.68l0 214.49z"/>
  <path id="_3_2" class="fil4" d="M12700.12 4216.9l0 -914.26c0,-286.88 -184.99,-439.7 -437.02,-439.7 -211.8,0 -345.86,80.43 -426.29,227.89l0 -193.04 -332.46 0 0 1319.11 348.54 0 0 -756.07c0,-201.09 88.48,-302.97 270.8,-302.97 166.22,0 225.21,56.3 225.21,260.07l0 798.97 351.22 0z"/>
  <path id="_4_3" class="fil4" d="M13689.46 3739.66c-13.41,142.1 -120.65,219.85 -257.39,219.85 -136.74,0 -257.39,-139.41 -257.39,-426.29 0,-286.88 120.65,-380.72 268.11,-380.72 131.38,0 230.58,80.43 249.35,217.17l351.22 0c-21.45,-311.01 -254.7,-506.73 -597.89,-506.73 -369.99,0 -616.65,206.44 -616.65,678.32 0,471.88 246.66,710.49 605.93,710.49 319.05,0 568.4,-206.44 605.93,-512.09l-351.22 0z"/>
 </g>
</svg>
