<svg width="24" height="24" viewBox="0 0 24 24" fill="none" xmlns="http://www.w3.org/2000/svg">
  <path fill-rule="evenodd" clip-rule="evenodd" d="M12 2C6.477 2 2 6.477 2 12c0 4.418 2.867 8.166 6.839 9.489.5.091.682-.217.682-.483 0-.238-.009-.868-.014-1.703-2.782.604-3.369-1.342-3.369-1.342-.454-1.157-1.11-1.465-1.11-1.465-.908-.62.069-.608.069-.608 1.004.07 1.532 1.032 1.532 1.032.892 1.53 2.341 1.088 2.91.832.091-.647.35-1.088.636-1.34-2.22-.253-4.555-1.111-4.555-4.944 0-1.091.39-1.984 1.029-2.683-.103-.253-.447-1.272.098-2.65 0 0 .84-.27 2.75 1.025A9.564 9.564 0 0 1 12 6.844c.85.004 1.705.115 2.504.337 1.909-1.295 2.748-1.025 2.748-1.025.546 1.378.202 2.397.1 2.65.64.699 1.028 1.592 1.028 2.683 0 3.842-2.338 4.687-4.566 4.936.36.31.68.92.68 1.855 0 1.338-.012 2.42-.012 2.75 0 .268.18.577.688.48C19.135 20.163 22 16.417 22 12c0-5.523-4.477-10-10-10z" fill="#181717"/>
</svg>
